Coordinates
version=1
nRows=11
nColumns=36
inDegrees=yes

Units are S.I. units (second, meters, Newtons, ...)
If the header above contains a line with 'inDegrees', this indicates whether rotational values are in degrees (yes) or radians (no).

endheader
time	pelvis_tilt	pelvis_list	pelvis_rotation	pelvis_tx	pelvis_ty	pelvis_tz	hip_flexion_r	hip_adduction_r	hip_rotation_r	knee_angle_r	knee_angle_r_beta	ankle_angle_r	subtalar_angle_r	mtp_angle_r	hip_flexion_l	hip_adduction_l	hip_rotation_l	knee_angle_l	knee_angle_l_beta	ankle_angle_l	subtalar_angle_l	mtp_angle_l	lumbar_extension	lumbar_bending	lumbar_rotation	arm_flex_r	arm_add_r	arm_rot_r	elbow_flex_r	pro_sup_r	arm_flex_l	arm_add_l	arm_rot_l	elbow_flex_l	pro_sup_l
      2.96666670	    -21.14776840	      7.00911225	     -4.01441204	      0.28717993	      1.30074063	     -0.02196279	      9.48584104	     -6.95834711	     -7.52906290	     23.05129456	      0.40232099	      1.45996886	    -15.46167978	     -7.49999987	     13.64496700	      3.16451483	      3.75839342	     27.51390423	      0.48020822	      1.52951222	     -8.50317193	     -7.49999987	      6.41501772	     -6.62010745	     -2.35162564	    -24.52924724	    -19.87690146	     -2.31014655	    128.63129706	     97.55064554	    -31.30428124	    -39.60472284	     11.93713475	    103.41042470	     85.43872354
      2.98333330	    -20.62371562	      7.04667494	     -4.15222407	      0.32507850	      1.33058770	     -0.02531147	      9.49499035	     -7.47879653	     -7.55619597	     25.71494483	      0.44881045	     -2.64433407	    -16.05933284	     -7.49999987	     14.81583148	      3.37712367	      3.49167501	     30.56752765	      0.53350400	     -0.91401026	     -9.78632615	     -7.49999987	      7.13585375	     -6.67713185	     -2.77960291	    -25.90260978	    -19.03473264	     -2.59231259	    121.91222994	     95.14437975	    -31.06863756	    -36.69843780	     11.83608627	     96.43066614	     83.84668257
      3.00000000	    -20.63636816	      6.51878418	     -4.23745476	      0.34076245	      1.34543462	     -0.02431130	     11.23405363	     -7.34368682	     -6.21764467	     30.09005510	      0.52517053	     -6.44192579	    -18.59280864	     -7.49999987	     15.76671745	      2.92323443	      3.27658060	     32.80772580	      0.57260284	     -1.04908899	    -10.39693293	     -7.49999987	      7.75702519	     -6.05185500	     -3.30632837	    -25.23824577	    -19.32560870	     -1.82380653	    114.01821525	     93.52550274	    -31.11317485	    -32.81362190	     11.24241192	     88.66215784	     82.48802810
      3.01666670	    -20.24337667	      6.02053089	     -4.14487081	      0.36046288	      1.35598882	     -0.02282867	     13.94653930	     -7.33179083	     -4.72591544	     37.99021068	      0.66305426	     -7.30339708	    -20.54348249	     -7.49999987	     18.63063361	      2.59229914	      3.49757782	     38.75396339	      0.67638426	      0.58214684	    -11.11583953	     -7.49999987	      7.31809567	     -5.37974287	     -3.40734145	    -24.55899302	    -18.73712872	     -2.81019821	    106.13471216	     89.96867819	    -29.43832663	    -29.66285104	     11.22820001	     80.56625283	     80.22567778
      3.03333330	    -20.12029146	      4.80000850	     -5.24080953	      0.36757233	      1.36218057	     -0.02502991	     18.38946293	     -6.16159832	     -2.46383171	     47.29999263	      0.82554061	     -6.82376570	    -22.75967474	     -7.49999987	     21.47417962	      1.26079293	      3.03843983	     45.19592289	      0.78881766	      1.04452392	    -12.42943598	     -7.49999987	      6.89497917	     -3.40041219	     -2.75383456	    -23.11115256	    -19.25877992	     -2.58593180	     98.27790778	     84.30067852	    -26.81693429	    -26.16571443	     11.82446894	     72.07448241	     76.34948011
      3.05000000	    -18.97544621	      3.22167091	     -6.35595569	      0.39947819	      1.37282914	     -0.01560560	     19.41889006	     -4.19722154	     -1.20457158	     52.99325923	      0.92490685	     -5.99375900	    -23.05352585	     -7.49999987	     22.42511413	     -0.51917582	      2.94118450	     50.67430849	      0.88443353	      0.29661465	    -13.24730624	     -7.49999987	      5.96390690	     -1.51198187	     -1.81792001	    -23.07991163	    -19.02707468	     -3.14986652	     91.47769883	     83.82540456	    -24.64689542	    -23.50311803	     11.45956474	     64.54947050	     76.08653702
      3.06666670	    -17.51820969	      1.53941541	     -7.01607005	      0.41266046	      1.38686231	     -0.00879269	     21.33268848	     -2.00314841	     -0.18388316	     60.26109877	      1.05175458	     -5.53112555	    -23.83758270	     -7.49999987	     21.19719994	     -2.65616799	      2.19065051	     51.35238123	      0.89626813	     -0.28819148	    -12.55770158	     -7.49999987	      4.53676003	      0.03058331	     -1.13970782	    -22.50302216	    -18.16748796	     -3.20720285	     82.42501061	     79.66467820	    -22.82647164	    -21.08243293	     10.44220903	     58.08376247	     73.11784891
      3.08333330	    -16.74610023	      0.43876104	     -7.04480222	      0.42172106	      1.38776714	     -0.01196515	     22.91109917	     -0.99306172	     -0.53271471	     64.00514835	      1.11710058	     -2.70333766	    -22.30779410	     -7.49999987	     21.47068084	     -4.14119050	      1.84536645	     51.97933419	      0.90721052	      0.00116094	    -11.17796157	     -7.49999987	      3.53056692	      1.12219562	     -0.96293881	    -20.52793320	    -18.19099135	     -1.14395299	     71.58760918	     77.77583873	    -20.12366772	    -18.82715458	     10.62795779	     50.34377000	     71.78435689
      3.10000000	    -16.57260908	      0.22973022	     -6.98628414	      0.43571661	      1.38033722	     -0.01111451	     25.01647831	     -0.80148661	     -0.74864726	     67.11867894	      1.17144194	      0.67490221	    -21.47924471	     -7.49999987	     22.75988482	     -4.54178292	      1.74333286	     52.95186880	      0.92418446	     -0.88321919	    -10.59835458	     -7.49999987	      2.89757891	      1.16674391	     -0.86216006	    -18.93192840	    -17.78770954	      0.44266484	     63.10147264	     77.62789053	    -18.19552835	    -17.24609468	     10.36014267	     44.75243630	     71.70019852
      3.11666670	    -15.47756243	      0.51255535	     -6.12717127	      0.44361943	      1.38937139	     -0.01392295	     25.48452761	     -1.87058136	     -1.44129687	     66.61667257	      1.16268027	      1.80437522	    -18.91752533	     -7.49999987	     23.29714789	     -3.79755338	      1.83319749	     50.82550505	      0.88707241	     -0.78800140	     -9.29119918	     -7.49999987	      1.11429943	      0.67383513	     -1.61891749	    -17.07334824	    -16.75891331	      0.90758339	     54.58569910	     77.12940654	    -15.71749635	    -15.79006366	     10.05395249	     39.56091372	     71.36443453
      3.13333330	    -15.34853191	      0.55787392	     -5.87899653	      0.45731625	      1.37465655	     -0.01247352	     28.19922230	     -2.37024729	     -2.02352756	     66.41690875	      1.15919374	      2.84193869	    -16.23147027	     -7.49999987	     24.25467341	     -3.67273496	      1.82098490	     48.98950472	      0.85502816	     -3.87639736	     -8.54857291	     -7.49999987	     -0.51823348	      1.03285771	     -1.67633722	    -15.93681083	    -16.46071066	      2.33790754	     48.72301150	     76.51752951	    -14.17249681	    -14.62558327	      9.75395556	     36.79459916	     70.92866089
